<svg version="1.1" id="Layer_1" xmlns="http://www.w3.org/2000/svg" xmlns:xlink="http://www.w3.org/1999/xlink" x="0px" y="0px"
	 width="100%" viewBox="0 0 560 688" enable-background="new 0 0 560 688" xml:space="preserve">
<path fill="#000000" opacity="1.000000" stroke="none" 
	d="
M91.562500,1.000000 
	C97.587036,5.605424 99.383080,11.613028 99.352211,18.712080 
	C99.303047,30.018339 98.609909,41.364773 100.320389,52.625771 
	C100.579269,54.330101 99.656151,56.594669 101.895576,57.470623 
	C104.049095,58.312981 105.802185,56.932606 107.257111,55.558556 
	C113.408745,49.748898 118.076721,42.943222 120.751869,34.854500 
	C122.443420,29.739790 125.278076,25.267824 128.265839,20.824329 
	C130.922684,16.872965 133.586105,17.052496 136.927765,19.792313 
	C140.846985,23.005667 143.908173,26.907837 146.632080,31.119999 
	C153.351974,41.511425 158.447311,52.718674 163.033524,64.162201 
	C164.408218,67.592346 166.246613,70.626991 168.576828,73.783943 
	C174.259766,70.387505 177.074600,64.953674 180.843033,60.421635 
	C190.154999,49.222813 200.528366,39.723709 215.485596,36.573215 
	C225.506989,34.462379 246.888748,41.908089 253.392273,53.319927 
	C255.703278,57.375088 253.246674,61.550114 254.598251,65.668289 
	C259.041321,65.668289 263.474609,65.646988 267.907593,65.672302 
	C280.943939,65.746750 287.810883,77.805305 281.224152,89.218300 
	C276.898346,96.713753 270.893799,102.728539 263.628601,107.351341 
	C258.103760,110.866760 253.758270,115.774323 248.448837,119.502945 
	C247.315430,120.298889 246.015915,121.705658 244.514923,120.125259 
	C243.374191,118.924202 243.998077,117.512505 244.728271,116.434471 
	C247.916870,111.727028 250.955887,107.002075 249.128586,100.391121 
	C250.892014,100.785904 251.766922,100.711472 252.053909,101.086685 
	C256.121643,106.405235 259.976288,104.009476 263.756683,100.792793 
	C266.543365,98.421616 269.269989,95.975609 271.948761,93.482788 
	C277.147278,88.645157 277.319275,82.138504 276.989410,75.857941 
	C276.742462,71.157227 266.984711,67.924889 263.170044,70.898064 
	C261.745331,72.008484 261.921875,73.668335 262.294830,75.051895 
	C263.487122,79.475151 263.037781,83.992409 263.322357,88.463509 
	C263.454254,90.535561 264.191010,93.246033 260.681091,93.117386 
	C257.670258,93.007034 256.301941,91.140556 256.401642,88.122162 
	C256.544647,83.795311 256.640747,79.466370 256.700256,75.137543 
	C256.725281,73.316055 256.913879,71.273026 254.684525,70.502777 
	C252.485474,69.742996 250.690720,70.803772 249.444046,72.480469 
	C248.062866,74.338036 246.624603,76.291962 245.843979,78.434486 
	C241.120758,91.397964 232.776779,103.237366 234.265854,118.121658 
	C235.743362,132.890060 236.291367,147.804306 234.283783,162.493546 
	C233.239380,170.135330 235.626572,175.212341 240.628693,180.138733 
	C248.239471,187.634262 254.449219,196.340851 261.160461,204.606873 
	C263.360107,207.316086 265.248108,207.745667 268.267487,205.813599 
	C272.462372,203.129349 276.816833,200.611420 281.686646,199.239456 
	C286.076233,198.002777 290.148804,197.491653 294.662933,199.918198 
	C298.609406,202.039612 303.494507,201.746033 307.827576,200.266113 
	C311.130219,199.138107 314.040314,196.434937 313.420258,192.859680 
	C312.650848,188.423340 314.848816,186.847031 318.041077,185.280045 
	C328.041534,180.371140 338.051208,175.478241 347.983368,170.433563 
	C368.981293,159.768463 387.962677,146.328568 402.032959,127.223694 
	C409.099060,117.629189 415.332703,107.323158 420.719421,96.556503 
	C424.484619,89.030838 429.507446,82.148582 432.324371,73.379463 
	C434.832489,76.320518 433.907898,78.694031 433.243134,80.993149 
	C429.942719,92.407776 425.245941,103.169250 419.039062,113.355629 
	C411.590515,125.579651 404.690247,138.066055 394.648590,148.565582 
	C381.549835,162.261612 366.456268,173.359253 351.075592,184.224686 
	C331.976746,197.716797 311.449860,208.663788 290.643158,219.165466 
	C289.013245,219.988129 287.576111,221.196259 285.939148,222.000900 
	C276.668457,226.557770 269.872620,231.642105 274.871613,244.086258 
	C277.033447,249.467911 275.308472,256.129944 272.516327,262.007599 
	C269.917419,267.478394 266.265045,271.366028 260.660400,273.413788 
	C253.803223,275.919281 249.118515,279.658478 248.360931,287.878723 
	C247.695770,295.096191 244.326141,296.338379 237.343506,294.218994 
	C234.074005,293.226685 230.342865,289.960510 227.221710,293.569885 
	C224.158508,297.112244 227.134048,300.838684 228.550201,304.279938 
	C230.700409,309.504944 232.972015,314.683289 235.327148,319.819489 
	C236.646011,322.695709 238.654510,323.907928 240.785797,320.616669 
	C248.759583,308.302917 260.936066,301.015167 272.848267,293.344482 
	C286.576599,284.504364 301.318054,277.890808 317.343140,275.005005 
	C332.404327,272.292725 347.710449,271.636230 363.039001,273.284607 
	C369.156006,273.942474 375.419342,273.610626 381.443420,274.691498 
	C398.070984,277.674927 413.763153,283.614777 429.024994,290.783081 
	C467.205048,308.715668 497.820221,335.405396 521.004578,370.548859 
	C533.746155,389.862885 541.472534,411.118408 544.326843,434.156372 
	C545.265747,441.734650 547.516296,449.096710 548.906555,456.625427 
	C551.459595,470.450958 548.975342,483.794678 545.952515,497.095520 
	C544.368652,504.064911 542.464539,510.937439 542.077759,518.117920 
	C541.760620,524.006958 540.250366,529.692261 537.971436,535.038513 
	C525.136536,565.148254 508.617004,592.635437 484.708832,615.694702 
	C462.935486,636.695007 437.557617,651.010132 410.109741,662.858643 
	C381.323456,675.284973 351.125275,680.284302 320.458130,678.582458 
	C281.721863,676.432922 244.190979,668.162048 210.036758,647.743652 
	C176.963165,627.971252 150.068222,602.027039 127.759911,570.933228 
	C114.048279,551.821594 103.635818,531.102661 97.128395,508.477112 
	C93.528397,495.960388 91.526031,483.205109 91.713242,470.131287 
	C91.870728,459.133728 91.812065,448.133057 91.966278,437.135406 
	C91.997047,434.940948 91.539070,432.401978 94.550560,430.531891 
	C98.880127,437.292053 97.339767,446.391083 102.366127,452.168945 
	C107.440086,458.001434 113.797325,462.766449 118.875748,469.479462 
	C130.117020,459.645355 133.774536,446.058746 137.581024,432.552673 
	C140.509705,433.926727 140.099030,435.991699 140.221146,437.692566 
	C141.198593,451.306396 142.591888,464.915894 142.875153,478.547150 
	C143.181778,493.301697 147.803299,507.009125 151.746567,520.873596 
	C163.848282,563.423157 186.864838,598.776978 221.474060,626.660278 
	C244.924789,645.553528 271.069214,657.714172 300.734406,663.284668 
	C321.255676,667.138123 340.966431,664.960999 361.022400,660.599792 
	C403.243835,651.418823 433.527313,625.291809 459.847809,593.044434 
	C477.011993,572.015198 487.746826,547.706909 495.256897,522.037292 
	C503.761444,492.968719 505.576294,463.002960 502.319122,432.984100 
	C500.476013,415.997498 493.811218,400.223511 485.836121,385.076538 
	C471.339966,357.544281 450.985077,335.137238 425.686737,317.371216 
	C411.609711,307.485504 395.791718,300.452484 379.495789,295.047668 
	C370.374512,292.022430 360.414032,291.696167 350.825592,291.509491 
	C333.062378,291.163574 315.264679,290.041351 297.549622,293.737030 
	C277.728394,297.872162 261.055481,307.115234 246.030655,320.524780 
	C239.771698,326.110870 239.598083,330.232666 242.522842,337.678345 
	C249.130829,354.500671 253.934189,371.919495 256.504517,390.005859 
	C258.040466,400.813477 259.315918,411.727417 261.662659,422.437622 
	C262.098663,424.427490 263.194794,427.151062 259.972656,427.700867 
	C256.997864,428.208466 256.572937,425.419708 256.226990,423.370422 
	C254.625320,413.883240 253.660065,404.263641 251.583237,394.887207 
	C248.071426,379.032135 247.042847,362.160461 239.626266,347.765259 
	C233.313492,335.512512 229.930801,322.449707 224.574509,310.026093 
	C223.728180,308.063110 222.375809,306.320038 221.275848,304.464325 
	C219.300934,301.132446 217.284775,297.805450 219.303635,293.731049 
	C219.446960,293.441833 219.559402,293.068359 219.509888,292.762573 
	C218.154282,284.387512 217.735397,275.959442 217.720367,267.480743 
	C217.716141,265.094269 215.695740,264.952332 214.110352,266.193878 
	C212.427826,267.511475 210.826767,269.056702 209.576080,270.782288 
	C201.029297,282.574219 190.530426,292.581116 180.345123,302.866089 
	C176.055771,307.197418 175.341019,309.266998 178.504333,314.676819 
	C183.880386,323.870789 189.941010,332.677490 195.059036,342.006226 
	C202.080856,354.805084 209.939606,367.207489 213.570969,381.684174 
	C216.601791,393.766663 223.326828,404.200195 229.752441,414.740906 
	C233.330200,420.609924 236.857071,426.640686 238.137192,433.993835 
	C234.186966,434.517242 232.287399,432.271271 231.190765,429.808746 
	C227.176941,420.795624 222.010666,412.298218 216.520721,404.324982 
	C208.614944,392.843140 206.908722,379.286224 201.275742,367.165070 
	C194.322357,352.202667 186.115280,337.916718 176.974716,324.178772 
	C175.703552,322.268188 174.362137,320.335510 172.392303,319.093140 
	C170.050125,319.319000 169.561768,321.910889 167.693069,322.667969 
	C167.460526,322.279419 167.107193,321.895386 167.179718,321.780731 
	C171.597748,314.796112 167.804596,309.227844 164.033981,303.702789 
	C162.072342,300.828369 159.992554,298.029938 157.868210,295.272583 
	C155.765350,292.543182 153.465424,291.796967 150.123062,293.790894 
	C146.124893,296.175995 142.916794,300.171783 138.291794,301.091644 
	C131.072906,302.527313 124.899414,306.066620 118.299591,308.951599 
	C100.017662,316.943268 75.868576,308.182953 65.375084,291.062531 
	C59.805649,281.975830 55.895477,272.622833 55.514263,261.706604 
	C55.329113,256.404785 53.681477,251.492310 46.732540,249.534256 
	C38.641830,247.254471 37.073723,239.472778 36.907661,232.119873 
	C36.587952,217.963409 36.739975,203.794876 36.797241,189.631744 
	C36.844807,177.867218 32.803158,167.902954 24.395479,159.606644 
	C17.649446,152.949936 17.267681,149.406860 25.121546,144.657150 
	C34.055626,139.254166 43.158577,133.201096 54.560547,133.605469 
	C58.950199,133.761169 62.891045,133.945969 65.086258,138.513489 
	C65.596733,139.575607 66.617203,140.242401 68.662399,140.011505 
	C65.540932,132.927200 62.726070,125.931374 59.398434,119.188606 
	C56.961227,114.250099 55.802246,109.217392 56.471554,103.825272 
	C56.734222,101.709114 55.748928,100.300125 54.673443,98.848999 
	C51.499794,94.566895 48.222626,90.361198 45.072468,86.062218 
	C44.220711,84.899834 43.293461,83.924156 41.840527,84.115685 
	C37.048534,84.747375 32.702621,82.497147 28.058270,82.104836 
	C24.742813,81.824776 21.578129,80.645576 18.891590,78.476250 
	C16.019573,76.157135 12.892214,74.279961 9.315826,73.235382 
	C7.418885,72.681335 5.799172,71.724525 6.049587,69.480026 
	C6.296856,67.263725 8.130976,66.479675 10.038781,66.408623 
	C14.729447,66.233940 19.306932,66.496780 23.343876,69.527435 
	C28.003906,73.025848 32.754860,76.425438 37.652260,79.579224 
	C42.743217,82.857666 44.027088,82.101059 44.877605,76.187897 
	C45.351578,72.892632 45.992130,69.647957 45.779655,66.272224 
	C45.366333,59.705463 46.217304,58.832920 53.007629,58.809544 
	C64.840103,58.768810 76.673096,58.778191 88.505470,58.841091 
	C96.229553,58.882153 96.041718,58.979385 94.532326,51.586494 
	C93.739670,47.704102 94.089439,43.589851 93.311180,39.702866 
	C91.191666,29.116901 87.227608,18.983746 85.416191,8.301208 
	C85.051453,6.150256 84.675179,4.049535 84.943459,1.436624 
	C87.041664,1.000000 89.083336,1.000000 91.562500,1.000000 
M170.123688,105.265083 
	C168.878738,101.136497 167.771576,97.030876 167.381012,92.659248 
	C166.865509,86.889374 166.001404,81.159615 163.796143,75.630516 
	C157.796646,60.588257 148.571609,47.255661 141.457886,32.807980 
	C139.943985,29.733324 138.846191,25.154316 134.320618,25.375286 
	C129.611496,25.605217 128.997238,30.367090 127.492424,33.709240 
	C123.107437,43.448158 119.029083,53.392372 110.331841,60.263332 
	C105.622383,63.983883 101.861740,67.602318 106.564339,73.820564 
	C107.025719,74.430634 107.034004,75.396233 107.212151,76.205711 
	C110.599327,91.596252 113.387993,107.117027 117.611534,122.325478 
	C119.945160,130.728592 119.910629,139.228210 117.632706,148.354385 
	C114.797737,145.375946 114.032700,142.311295 113.859558,139.007950 
	C113.544907,133.004623 112.584511,127.063950 110.898811,121.338455 
	C106.572166,106.642975 103.364349,91.711571 100.747475,76.639259 
	C100.478027,75.087372 100.235512,73.132118 98.458763,73.350105 
	C95.018082,73.772240 91.976143,71.727196 88.627327,72.202377 
	C78.319031,73.665062 68.049408,72.363182 57.763771,71.870522 
	C54.295765,71.704414 52.266678,72.919983 52.296154,77.074158 
	C52.372040,87.768204 58.842796,94.809982 66.432816,100.439568 
	C76.053543,107.575317 84.279045,115.953720 91.795433,125.065918 
	C103.014252,138.666611 114.217934,152.278915 124.722374,166.474289 
	C128.630859,171.756088 134.823151,175.174866 141.575317,178.887787 
	C141.626984,169.678940 143.311432,161.867935 147.215302,154.092010 
	C149.899078,156.210739 149.673141,158.153366 149.300827,160.126633 
	C148.776627,162.904922 147.922424,165.661469 147.755615,168.459885 
	C146.843079,183.766739 148.943085,198.156143 160.698608,209.546219 
	C164.852310,207.738663 168.710785,206.337021 172.252777,204.033035 
	C187.304657,194.242081 197.621841,180.790848 204.212357,164.194901 
	C205.912613,159.913391 206.589188,156.151749 204.267700,151.878677 
	C200.636826,145.195389 199.241882,137.948318 202.063629,130.688904 
	C206.349899,119.661705 207.394028,119.445633 217.545364,126.650337 
	C219.585052,128.097961 220.297729,130.268173 218.814301,132.700485 
	C216.318298,133.024597 214.582932,131.555420 212.639542,130.731201 
	C210.594696,129.863983 208.759247,130.160629 208.499969,132.593796 
	C208.035828,136.949661 207.469009,141.463364 210.992416,145.061081 
	C212.912735,144.021149 212.495819,142.247055 213.116913,140.945282 
	C213.958023,139.182388 215.429779,138.413940 217.210709,139.197632 
	C219.139801,140.046524 218.482635,141.812408 217.809677,143.071945 
	C216.799545,144.962494 215.489746,146.707153 214.188324,148.423584 
	C213.006485,149.982285 212.272980,151.641846 213.019516,153.521072 
	C215.140961,158.861206 218.744339,162.806900 224.149155,165.014114 
	C226.887833,166.132538 228.607407,165.190933 228.525757,162.351837 
	C228.190918,150.707672 230.711105,139.045517 229.036346,127.479134 
	C226.997086,113.395409 227.923004,100.233582 235.177139,87.473022 
	C239.449295,79.957985 243.679001,72.426498 248.215515,65.064163 
	C250.073090,62.049473 250.906937,58.892754 248.291641,55.825733 
	C237.522995,43.197025 217.751099,37.042744 201.644623,48.376217 
	C192.881210,54.542683 186.931152,63.221745 179.739761,70.810364 
	C172.744614,78.191910 167.920471,85.410927 174.874603,95.304947 
	C175.145691,95.690651 175.127380,96.267578 175.311050,96.728661 
	C181.497040,112.256798 180.583862,128.395432 179.056320,144.483597 
	C178.112274,154.426361 169.855499,161.489532 161.796310,160.151764 
	C150.818680,158.329559 144.950012,149.021988 146.798508,137.937943 
	C149.398926,122.345177 152.605042,106.940407 157.484039,91.892288 
	C158.416901,89.015114 158.130661,85.756416 160.359207,82.145470 
	C162.762085,87.199379 162.927261,91.834404 161.692596,95.904854 
	C157.871536,108.502144 155.780670,121.471626 152.672867,134.213760 
	C150.443420,143.354599 152.785431,150.352051 159.322006,153.781570 
	C164.219437,156.351089 168.327957,155.200729 170.050873,150.042999 
	C174.922791,135.458527 175.399658,120.732719 170.123688,105.265083 
M184.343567,214.881378 
	C188.042145,215.142868 191.589615,216.035324 194.870743,217.750381 
	C200.323166,220.600403 205.834442,223.366760 211.103668,226.530228 
	C216.535431,229.791275 221.243042,229.845200 226.639130,225.985321 
	C234.873367,220.095306 243.385757,214.445572 253.737396,212.689301 
	C254.996017,212.475754 256.378113,212.095993 257.362396,209.700760 
	C244.223999,191.799118 228.922562,175.338959 210.994293,160.234543 
	C209.940033,163.068054 208.870804,165.006439 208.521851,167.066818 
	C207.696899,171.937790 205.625107,176.219635 203.151566,180.402634 
	C195.340973,193.611084 183.156998,202.546600 171.898331,212.368881 
	C170.605026,213.497147 168.609756,213.868057 166.894211,214.456924 
	C159.460785,217.008575 151.746414,219.377960 147.113083,226.259079 
	C142.129745,233.659973 135.955887,239.893005 129.690109,246.103821 
	C117.539780,258.147614 116.565453,269.329346 121.961388,286.924500 
	C122.686035,289.287415 122.834015,293.111755 126.040398,293.064575 
	C128.850769,293.023224 129.649811,289.449402 130.645996,287.121613 
	C133.325668,280.860107 135.195190,274.212921 138.279083,268.174835 
	C141.068420,262.713501 142.264908,257.497009 141.175720,251.409088 
	C140.429779,247.239792 139.835449,242.755020 142.574539,238.450195 
	C149.057007,249.816147 151.211594,263.122986 159.425720,273.815338 
	C177.422867,261.010284 191.515488,243.285339 213.914963,235.416626 
	C202.112289,224.856567 186.811722,225.379166 175.537399,216.858582 
	C177.906494,214.761169 180.693100,214.819748 184.343567,214.881378 
M114.381279,161.068741 
	C112.832161,157.716995 110.870697,154.594788 108.231575,152.038620 
	C100.919235,144.956116 94.475746,137.135254 87.967194,129.329910 
	C81.692413,121.804924 75.242706,114.365959 67.620148,108.085892 
	C65.470985,106.315247 63.399174,104.525337 60.926727,104.626213 
	C65.737495,133.004623 85.666122,148.978302 109.029915,162.308365 
	C95.082504,169.006592 98.924606,169.760696 89.810944,160.801819 
	C88.742577,159.751587 87.742882,158.601456 86.551552,157.711594 
	C81.703629,154.090424 77.913025,149.335266 71.363914,147.705750 
	C61.570847,145.269073 51.831600,146.563873 42.087784,146.520081 
	C38.224628,146.502716 34.206944,147.844055 30.522148,149.253250 
	C25.556751,151.152206 25.345366,153.570572 29.258245,157.093338 
	C36.500381,163.613449 42.150646,171.261047 43.139347,181.171616 
	C44.078278,190.583267 44.711945,200.063141 44.280964,209.566284 
	C44.171947,211.970062 43.662304,214.545181 45.194199,216.757568 
	C47.080711,217.252960 48.608738,216.396027 50.026001,215.655197 
	C57.237591,211.885590 65.007530,209.055542 71.534363,204.130798 
	C80.482040,197.379440 89.466385,197.342331 99.010376,202.574600 
	C105.575119,206.173569 112.155670,209.806641 118.992455,212.828842 
	C125.927132,215.894302 132.862930,219.387695 140.877151,218.725693 
	C145.792526,218.319672 147.498795,215.937454 145.786453,211.426514 
	C143.727371,206.002182 141.329498,200.816406 137.924545,195.988266 
	C129.976212,184.717667 121.383308,173.866180 114.381279,161.068741 
M113.727173,282.413452 
	C110.137108,270.115753 111.714516,258.784058 119.757950,248.507629 
	C124.304558,242.698792 129.749542,237.816284 135.048645,232.761108 
	C137.990677,229.954514 141.420425,227.439331 142.295319,223.048569 
	C140.291306,221.729370 138.352448,222.468735 136.886398,223.217438 
	C133.631042,224.879913 130.998123,223.888824 127.948997,222.572617 
	C116.657700,217.698593 105.209717,213.261795 94.371948,207.302673 
	C84.905731,202.097687 74.200867,206.112747 71.449875,215.421127 
	C69.973763,220.415802 67.642639,224.990143 65.765739,229.781052 
	C63.339336,235.974609 60.593426,242.364227 60.583771,248.915451 
	C60.566391,260.704895 61.951107,272.471283 67.490669,283.267120 
	C74.530815,296.987305 85.423607,305.072845 101.128708,305.243347 
	C107.402000,305.311462 113.785805,304.392578 119.653114,301.781616 
	C124.105209,299.800323 124.442482,297.991455 121.417076,294.302612 
	C118.568581,290.829468 115.470871,287.534454 113.727173,282.413452 
M262.577148,223.933578 
	C262.240814,222.645126 262.010284,221.316498 261.540070,220.078918 
	C261.011993,218.689178 259.822693,218.082031 258.355713,218.140152 
	C256.880829,218.198608 255.578674,218.922577 255.372803,220.346603 
	C254.874542,223.792770 254.624725,227.278000 254.361954,230.754074 
	C254.160141,233.423508 257.967010,232.300888 258.248505,234.957993 
	C255.506058,238.564774 251.646652,241.217682 247.961395,243.981110 
	C243.434647,247.375549 241.308655,251.182602 243.815826,256.834534 
	C245.293427,260.165527 246.253143,263.723358 247.514816,267.153778 
	C248.927017,270.993469 251.378998,272.138214 255.355453,270.537201 
	C263.272583,267.349670 267.490417,261.155060 268.075775,252.545822 
	C268.742584,242.739182 264.491760,234.004318 262.577148,223.933578 
M242.844101,281.260834 
	C245.651855,279.032623 245.216034,276.234467 243.839325,273.600311 
	C241.513351,269.149872 240.266769,264.321655 238.474106,259.688263 
	C237.189957,256.369202 236.472931,251.991989 232.020218,251.633804 
	C228.228363,251.328781 226.568176,255.106720 224.644119,257.639130 
	C222.928986,259.896576 220.276031,262.043182 221.047363,265.481232 
	C222.369720,271.375427 233.189560,281.620758 238.950333,282.575592 
	C240.204605,282.783478 241.226410,282.295410 242.844101,281.260834 
M55.845612,238.417038 
	C58.527916,230.309311 64.913925,223.788147 66.211655,215.271408 
	C65.103920,214.107986 64.001999,214.096451 63.110558,214.381287 
	C57.393963,216.208038 51.831696,218.583893 47.479393,222.740051 
	C42.809418,227.199539 41.890530,238.274063 45.287529,243.231262 
	C46.610455,245.161789 48.142956,247.205551 50.701000,247.190781 
	C53.319984,247.175674 53.083336,244.375061 54.060032,242.792160 
	C54.748299,241.676712 55.132286,240.373520 55.845612,238.417038 
M140.598648,292.165527 
	C143.432693,290.135315 145.047791,286.574585 148.443359,285.371582 
	C151.197861,284.395630 152.077240,282.678009 151.770630,280.073364 
	C151.162766,274.909424 149.500336,270.095062 146.798325,264.053040 
	C144.483902,276.040863 139.867752,285.403595 133.415359,294.021942 
	C136.701996,295.457245 138.338531,293.913208 140.598648,292.165527 
M82.361221,65.711349 
	C86.627129,65.481583 90.893044,65.251816 95.158951,65.022049 
	C82.228981,64.222588 69.320709,64.157745 56.414009,64.271721 
	C53.473042,64.297691 51.874329,65.784203 53.245075,69.290497 
	C62.564205,66.297707 71.957634,65.793861 82.361221,65.711349 
M231.033447,234.983505 
	C229.591766,238.247101 232.116241,240.125168 233.654800,242.303802 
	C234.736450,243.835480 236.118683,245.176178 238.214417,244.285736 
	C239.922394,243.560043 239.533386,241.889404 239.676758,240.413177 
	C239.907150,238.041153 238.815186,237.008575 236.621124,236.913025 
	C234.696869,236.829208 233.287949,235.559586 231.033447,234.983505 
M116.324753,487.343323 
	C115.940735,488.413116 115.222794,489.488403 115.240257,490.551605 
	C115.280090,492.975830 115.971191,495.595184 118.893402,495.538544 
	C121.813164,495.481995 122.107796,492.825073 121.490952,490.689209 
	C120.879860,488.573364 121.226868,484.536285 116.324753,487.343323 
M273.799347,217.850647 
	C274.788574,218.164307 275.830780,217.632706 275.427307,216.821304 
	C274.092255,214.136475 272.510468,211.478363 268.637878,211.685867 
	C268.891998,215.022858 271.479614,215.961975 273.799347,217.850647 
M152.910538,210.414383 
	C151.393875,211.172089 150.128220,212.064682 150.753754,214.110596 
	C154.317902,213.447540 154.317902,213.447540 155.994308,210.564682 
	C155.100250,210.465927 154.322601,210.380020 152.910538,210.414383 
z"/>
<path fill="#000000" opacity="1.000000" stroke="none" 
	d="
M216.361267,349.513855 
	C220.286911,342.991882 225.708237,337.949768 228.761368,331.069580 
	C231.451904,336.644379 222.161835,353.162170 214.810638,356.295288 
	C213.584808,353.766785 215.539886,351.931335 216.361267,349.513855 
z"/>
<path fill="#000000" opacity="1.000000" stroke="none" 
	d="
M131.116226,156.942505 
	C128.578827,161.002930 124.996056,159.859589 121.520149,160.110077 
	C120.656509,155.654343 123.510361,153.106445 125.369141,150.415985 
	C129.347702,144.657272 131.958466,138.625046 131.972733,131.486557 
	C131.986343,124.674126 132.729263,117.854004 132.557724,111.052238 
	C132.207870,97.178635 135.468750,84.039230 140.124802,71.181938 
	C141.760559,66.664917 144.532593,62.683460 148.325256,59.385605 
	C151.292465,61.042572 150.539734,63.352066 149.809250,65.534203 
	C146.649597,74.972816 143.425095,84.369217 141.491516,94.187180 
	C140.330963,100.079994 138.955566,106.071655 139.450668,111.928001 
	C140.779907,127.651627 136.640839,142.176514 131.116226,156.942505 
z"/>
</svg>